#!OML:ASF H:\ColoradoDance\Project 1\Capture day 1\Session 8\male.ASF
:FULLY-SPECIFIED
:DEGREES
87
upperback -3.513740 0.025284 0.053034
rfoot 1.549440 4.167490
lradius 20.865999
lthumb -0.411863 43.603298
rradius 20.518801
lwrist -17.003300
rhand -35.884201 -7.870830
rhumerus -60.428902 -15.966700 -56.672501
lowerneck -3.431810 3.627920 8.084070
lhand -26.991501 13.623900
ltibia 26.208900
head 2.424410 2.347620 -3.492260
rwrist 16.564699
lfingers 7.125020
rtoes -24.091600
lowerback -0.514655 0.019371 0.167209
rfingers 7.125020
lclavicle 0.000000 0.000000
upperneck 4.334730 4.755540 -6.667710
rfemur 5.849900 9.060040 14.938500
thorax -3.319090 0.006711 -0.039652
rclavicle 0.000000 0.000000
rtibia 33.298100
lfoot -5.883300 13.783200
lhumerus -53.862301 11.340400 65.948997
rthumb -8.998100 322.341003
root 21.023001 19.356400 -10.513900 365.691010 -9.261080 358.230011
ltoes 9.707930
lfemur -23.719101 2.723600 -17.542801
88
upperback -3.247890 -1.024450 0.315838
rfoot -1.296370 -14.499100
lradius 23.879400
lthumb -8.675150 57.578201
rradius 28.274200
lwrist -16.668200
rhand -41.353298 -36.270199
rhumerus -50.635502 -9.400500 -68.620300
lowerneck -2.816050 4.789650 8.276410
lhand -35.549599 27.776501
ltibia 24.995899
head 2.464700 3.162380 -3.960190
rwrist 10.838300
lfingers 7.125020
rtoes -3.836790
lowerback 0.319919 -0.755925 -0.887675
rfingers 7.125020
lclavicle -0.000000 -0.000000
upperneck 4.805300 6.532240 -9.406050
rfemur -13.597000 1.654330 7.287340
thorax -3.494780 -0.481880 0.856274
rclavicle -0.000000 -0.000000
rtibia 58.254299
lfoot -13.008900 10.078000
lhumerus -49.972198 5.565520 67.833099
rthumb -14.272100 294.239990
root 22.164101 19.366400 -7.614030 363.277008 -10.904100 360.186005
ltoes 6.865640
lfemur -11.827400 6.620720 -24.780001
89
upperback -3.711480 -1.774720 0.169079
rfoot -24.127001 -17.870501
lradius 24.085300
lthumb 6.757820 58.075298
rradius 37.327999
lwrist -19.273600
rhand -14.071300 -5.042590
rhumerus -40.866199 -0.191391 -80.826599
lowerneck -3.809260 2.975930 5.935050
lhand -19.566999 28.203100
ltibia 24.471500
head 2.334070 1.915050 -3.758700
rwrist 8.584240
lfingers 7.125020
rtoes -17.661301
lowerback 0.075184 -1.313370 -1.066890
rfingers 7.125020
lclavicle -0.000000 -0.000000
upperneck 4.669580 4.170330 -9.725220
rfemur -34.652500 8.314580 7.983000
thorax -3.821030 -0.847994 0.831100
rclavicle -0.000000 -0.000000
rtibia 39.855999
lfoot -18.722601 5.255320
lhumerus -48.062401 2.668520 69.634499
rthumb 12.060400 325.325012
root 22.874100 19.029800 -5.207030 365.354004 -0.789110 361.489014
ltoes 5.289080
lfemur -5.781360 1.136110 -28.471399
90
upperback -4.072980 -1.526060 -2.008220
rfoot -30.728600 -7.293890
lradius 21.392700
lthumb 11.505600 56.627399
rradius 46.740601
lwrist -23.841101
rhand -10.977400 14.817800
rhumerus -43.834801 8.554550 -89.764999
lowerneck -4.877850 2.087320 7.073730
lhand -14.646600 26.963100
ltibia 17.747801
head 2.543540 1.294490 -5.356240
rwrist 9.688590
lfingers 7.125020
rtoes -24.204800
lowerback 0.603833 -1.010870 -3.994290
rfingers 7.125020
lclavicle 0.000000 -0.000000
upperneck 4.736030 3.171070 -14.170000
rfemur -41.615002 26.132500 -8.997320
thorax -4.498190 -0.641800 0.227492
rclavicle 0.000000 -0.000000
rtibia 26.164200
lfoot -18.792200 -14.170600
lhumerus -51.690102 9.225370 64.666496
rthumb 15.042200 345.384003
root 23.265699 18.695801 -2.440390 369.903992 29.843500 365.058014
ltoes 7.271010
lfemur 3.478720 -10.004000 -25.356100
91
upperback -4.590800 2.555540 -2.479160
rfoot -12.068000 -12.135400
lradius 24.202299
lthumb 4.231970 60.930500
rradius 34.972301
lwrist -6.107570
rhand -41.424400 -21.813499
rhumerus -46.039799 9.362710 -99.075996
lowerneck -0.737833 12.488700 14.113000
lhand -22.183100 30.992701
ltibia 20.809200
head 4.803860 8.883450 -6.838580
rwrist 9.850960
lfingers 7.125020
rtoes -7.104200
lowerback 2.172750 1.952990 -0.124496
rfingers 7.125020
lclavicle -0.000000 -0.000000
upperneck 5.517190 18.121000 -18.652100
rfemur -28.086300 7.137260 13.341300
thorax -5.870600 1.241420 -2.694320
rclavicle -0.000000 -0.000000
rtibia 30.838499
lfoot -9.633640 23.750401
lhumerus -44.963600 8.519530 61.756001
rthumb -14.340600 308.701996
root 23.532900 19.146900 1.357590 355.760986 82.130699 342.523010
ltoes 15.062200
lfemur -3.989970 -17.609900 -3.103930
92
upperback -3.968090 3.936890 -2.091280
rfoot -23.124800 -28.642401
lradius 31.417299
lthumb 5.456020 56.108700
rradius 28.174101
lwrist -8.549990
rhand -36.512798 -21.070000
rhumerus -58.023499 -5.756230 -89.688698
lowerneck 3.953930 15.607100 17.106899
lhand -20.915400 26.198999
ltibia 40.828098
head 4.609800 11.517200 -5.778750
rwrist 7.536450
lfingers 7.125020
rtoes -14.615500
lowerback 1.326700 2.809480 3.996010
rfingers 7.125020
lclavicle 0.000000 0.000000
upperneck 5.433520 22.755800 -14.646000
rfemur -20.254700 -14.705800 26.380100
thorax -4.440510 1.821570 -4.602670
rclavicle 0.000000 0.000000
rtibia 35.989201
lfoot -5.505230 25.444099
lhumerus -31.981199 -6.143150 78.586098
rthumb -9.604610 309.169006
root 24.672199 19.237200 3.960410 193.625000 25.388500 180.533997
ltoes 23.582899
lfemur -16.805700 5.946580 -9.220050
93
upperback -4.117780 -2.697420 1.231380
rfoot -20.703600 -17.752600
lradius 36.575001
lthumb 8.679960 52.624100
rradius 16.657101
lwrist -4.262210
rhand -28.722099 -11.037700
rhumerus -65.186996 -8.513620 -77.570602
lowerneck -3.226120 10.198000 12.797500
lhand -17.575500 22.822599
ltibia 44.298100
head 4.704840 6.749260 -5.053410
rwrist 13.610200
lfingers 7.125020
rtoes -26.259300
lowerback 0.048788 -2.012080 2.696180
rfingers 7.125020
lclavicle 0.000000 -0.000000
upperneck 7.964930 13.971600 -12.587300
rfemur -18.891899 -15.047300 28.685200
thorax -4.336170 -1.466330 -0.128737
rclavicle 0.000000 -0.000000
rtibia 44.337002
lfoot -5.409790 14.768800
lhumerus -27.507000 -13.835800 84.218597
rthumb -2.083340 318.993011
root 25.369699 18.996799 4.931420 192.042999 -45.948200 178.378006
ltoes -16.267300
lfemur -18.202200 17.915100 -11.207300
94
upperback -3.124700 -1.192840 1.612520
rfoot -4.061190 7.482590
lradius 35.881699
lthumb 2.403820 54.914299
rradius 10.211100
lwrist -6.107260
rhand -29.941999 -8.516350
rhumerus -65.121597 -9.257730 -48.480801
lowerneck -5.222650 -0.074275 4.948340
lhand -24.076099 24.948099
ltibia 45.578499
head 1.147350 -0.211603 -1.949540
rwrist 31.084801
lfingers 7.125020
rtoes -29.318701
lowerback 4.417750 -0.990584 1.109790
rfingers 7.125020
lclavicle 0.000000 -0.000000
upperneck 0.843052 -0.341804 -3.449570
rfemur -38.106602 -28.528500 22.683599
thorax -5.709470 -0.611764 1.164590
rclavicle 0.000000 -0.000000
rtibia 75.879898
lfoot -20.173201 1.636760
lhumerus -11.476000 -6.060020 69.748199
rthumb -3.261480 321.528992
root 25.610800 18.091801 5.231480 178.227997 -87.633698 192.972000
ltoes -12.314800
lfemur -29.206499 15.425500 -11.273800
95
upperback -2.474920 2.460210 1.800750
rfoot -14.110100 -19.327299
lradius 21.097300
lthumb -3.270160 53.278099
rradius 33.583698
lwrist -13.529800
rhand -37.804600 -10.540000
rhumerus -41.320999 -5.729840 -48.653599
lowerneck -3.515400 -3.688610 2.872540
lhand -29.951000 23.323500
ltibia 57.200901
head -0.258396 -2.563700 -0.619736
rwrist 3.484870
lfingers 7.125020
rtoes -12.373600
lowerback 7.023300 1.619160 2.110050
rfingers 7.125020
lclavicle 0.000000 0.000000
upperneck -2.465000 -5.051570 -0.382118
rfemur -33.541801 -23.354000 1.513070
thorax -6.522470 1.154790 0.390327
rclavicle 0.000000 0.000000
rtibia 46.928200
lfoot -21.532400 -3.429260
lhumerus -17.379200 6.423430 49.882500
rthumb -10.850800 319.760010
root 25.578899 17.117001 3.796680 67.337402 -82.474403 303.808990
ltoes -15.427700
lfemur -37.358501 18.268299 0.308187
96
upperback -2.574530 5.038830 -0.409323
rfoot -0.526024 -21.747299
lradius 24.241600
lthumb 11.209500 61.710201
rradius 47.573700
lwrist -17.303101
rhand -33.864799 3.847070
rhumerus -23.277599 3.942160 -63.949902
lowerneck -4.557900 -7.211730 -0.723745
lhand -14.953600 32.029598
ltibia 36.638901
head 1.024480 -4.788050 0.443677
rwrist 10.984900
lfingers 7.125020
rtoes -15.047300
lowerback 6.296270 3.655040 2.004110
rfingers 7.125020
lclavicle -0.000000 -0.000000
upperneck 0.477921 -9.618690 1.783370
rfemur -36.200901 -34.297699 1.265870
thorax -5.999490 2.398740 -2.111260
rclavicle -0.000000 -0.000000
rtibia 40.342999
lfoot -8.489060 2.672720
lhumerus -32.694199 12.063500 45.524799
rthumb -7.049080 333.984009
root 25.358200 16.556000 -0.312531 37.269699 -79.621498 332.796997
ltoes -24.755199
lfemur -27.776199 8.008140 15.137400
97
upperback -2.871280 1.167860 -0.133094
rfoot -11.588700 -17.526800
lradius 24.038300
lthumb 28.286900 65.885399
rradius 41.768299
lwrist -14.168600
rhand -36.957298 -0.180358
rhumerus -18.425900 10.115000 -75.331802
lowerneck -6.065630 -7.304870 0.510365
lhand 2.818290 38.001202
ltibia 54.259602
head 1.898730 -4.877560 -0.636581
rwrist 7.097480
lfingers 7.125020
rtoes -4.729770
lowerback 6.328810 0.656768 3.352270
rfingers 7.125020
lclavicle -0.000000 0.000000
upperneck 2.992710 -9.757470 -0.700863
rfemur -55.125599 -45.228100 27.667801
thorax -6.487520 0.426442 -2.159590
rclavicle -0.000000 0.000000
rtibia 61.371601
lfoot -9.961500 14.933900
lhumerus -37.973400 13.261400 49.285500
rthumb -10.033400 330.079010
root 25.701200 17.192301 -5.758740 25.954201 -69.005203 344.118011
ltoes -0.952447
lfemur -33.841000 15.228600 9.119370
98
upperback -2.955300 -0.734228 1.592500
rfoot -8.654960 -26.363199
lradius 28.985100
lthumb 22.792200 53.761700
rradius 34.689301
lwrist -8.478030
rhand -35.963699 -2.650880
rhumerus -32.604698 0.935752 -72.349297
lowerneck -6.959220 -3.593150 2.445080
lhand -2.918440 25.088200
ltibia 59.244900
head 2.429410 -2.477360 -1.654580
rwrist 10.604300
lfingers 7.125020
rtoes 3.153020
lowerback 5.095540 -0.790993 3.425170
rfingers 7.125020
lclavicle 0.000000 -0.000000
upperneck 4.290940 -4.847870 -3.205690
rfemur -53.222500 -27.085501 35.474800
thorax -5.961120 -0.476443 -0.187164
rclavicle 0.000000 -0.000000
rtibia 51.166199
lfoot -10.196800 -15.642500
lhumerus -38.827999 8.200370 60.780899
rthumb -9.074810 327.563995
root 27.136499 17.964300 -8.415940 35.638401 -73.849998 333.265991
ltoes -13.488300
lfemur -15.742200 17.455200 -22.159300
99
upperback -3.356330 -0.214007 3.030830
rfoot -0.799603 6.031600
lradius 29.415001
lthumb 15.914700 59.492001
rradius 21.427900
lwrist -11.654500
rhand -23.523701 -3.365100
rhumerus -33.552101 -8.442160 -59.676102
lowerneck -6.142260 -2.025280 3.458260
lhand -10.071500 30.125900
ltibia 37.867298
head 0.955028 -1.495930 -0.895566
rwrist 17.740000
lfingers 7.125020
rtoes -21.417101
lowerback 4.935710 -0.557756 5.613160
rfingers 7.125020
lclavicle 0.000000 -0.000000
upperneck -0.028923 -2.956100 -0.774148
rfemur -54.979000 -9.546070 22.497601
thorax -6.296190 -0.308039 0.046513
rclavicle 0.000000 -0.000000
rtibia 53.030602
lfoot -29.061600 7.194910
lhumerus -34.921299 3.890540 62.250099
rthumb 2.937390 326.674988
root 30.183800 17.872601 -9.804380 69.014801 -74.147301 304.385986
ltoes 20.100800
lfemur -18.413000 -0.892887 -28.045300
